<?xml version="1.0" encoding="utf-8"?>
<!-- Generator: Adobe Illustrator 27.5.0, SVG Export Plug-In . SVG Version: 6.00 Build 0)  -->
<svg version="1.1" xmlns="http://www.w3.org/2000/svg" xmlns:xlink="http://www.w3.org/1999/xlink" x="0px" y="0px"
	 viewBox="0 0 500 500" style="enable-background:new 0 0 500 500;" xml:space="preserve">
<g id="Floor">
	<path style="fill:#F5F5F5;" d="M103.26,428.68c82.76,43.24,216.94,43.24,299.7,0s82.77-113.33,0-156.57s-216.94-43.23-299.7,0
		S20.5,385.45,103.26,428.68z"/>
</g>
<g id="Shadow">
	<ellipse style="fill:#E0E0E0;" cx="392.89" cy="385.06" rx="45.55" ry="21.71"/>
</g>
<g id="Plants">
	<g>
		<path style="fill:#27DEBF;" d="M67.88,370.52c-0.141-0.904-0.483-1.765-1-2.52c-0.958-1.034-2.258-1.684-3.66-1.83
			c-1.389-0.133-2.771-0.336-4.14-0.61c-4.316-1.176-6.862-5.629-5.685-9.945c0.005-0.018,0.01-0.037,0.015-0.055
			c0.37-1.32,1.07-2.54,1.44-3.86c1-3.49-1.73-4.94-4.2-6.62c-1.73-1.17-4.55-2.89-4.19-5.35c0.68-4.62,7.48-5.79,14-3.94
			s10,3.3,14.84,2c4.84-1.3,9.33-1.6,11.87,2.74s0,8.39,3.27,11.42c3.27,3.03,9.05,0.95,11.25,7.51v39.09c0-0.23-1.12-1-1.28-1.13
			l-3.59-3.17c-1.1-1-2.69-1.88-3.44-3.12c-1.06-1.72-1.58-3.76-2.66-5.5c-1.215-2.091-2.97-3.818-5.08-5
			c-4.15-2.14-9.19-1.77-13.4-3.84c-1.544-0.695-2.797-1.908-3.54-3.43C68.33,372.444,68.055,371.492,67.88,370.52z"/>
		<path style="opacity:0.2;enable-background:new    ;" d="M67.88,370.52c-0.141-0.904-0.483-1.765-1-2.52
			c-0.958-1.034-2.258-1.684-3.66-1.83c-1.389-0.133-2.771-0.336-4.14-0.61c-4.316-1.176-6.862-5.629-5.685-9.945
			c0.005-0.018,0.01-0.037,0.015-0.055c0.37-1.32,1.07-2.54,1.44-3.86c1-3.49-1.73-4.94-4.2-6.62c-1.73-1.17-4.55-2.89-4.19-5.35
			c0.68-4.62,7.48-5.79,14-3.94s10,3.3,14.84,2c4.84-1.3,9.33-1.6,11.87,2.74s0,8.39,3.27,11.42c3.27,3.03,9.05,0.95,11.25,7.51
			v39.09c0-0.23-1.12-1-1.28-1.13l-3.59-3.17c-1.1-1-2.69-1.88-3.44-3.12c-1.06-1.72-1.58-3.76-2.66-5.5
			c-1.215-2.091-2.97-3.818-5.08-5c-4.15-2.14-9.19-1.77-13.4-3.84c-1.544-0.695-2.797-1.908-3.54-3.43
			C68.33,372.444,68.055,371.492,67.88,370.52z"/>
		<path style="fill:#FFFFFF;" d="M101.81,389.94c-0.243,0-0.452-0.172-0.5-0.41c-4.13-23.54-31.69-45.28-48.1-49.34
			c-0.263-0.063-0.425-0.327-0.362-0.591c0.001-0.003,0.002-0.006,0.002-0.009c0.064-0.267,0.332-0.433,0.6-0.37
			c16.67,4.12,44.65,26.22,48.85,50.13c0.048,0.272-0.134,0.531-0.406,0.579c-0.001,0-0.003,0.001-0.004,0.001L101.81,389.94z"/>
		<path style="fill:#FFFFFF;" d="M62.83,357.24c-0.155-0.002-0.301-0.071-0.4-0.19c-0.168-0.218-0.128-0.531,0.09-0.7
			c3.91-3.1,11.89-4,15.08-3.81c0.276,0.017,0.487,0.254,0.47,0.53c-0.017,0.276-0.254,0.487-0.53,0.47
			c-3.27-0.22-10.87,0.8-14.4,3.59C63.05,357.197,62.942,357.235,62.83,357.24z"/>
		<path style="fill:#FFFFFF;" d="M81,356.52c-0.063,0.009-0.127,0.009-0.19,0c-0.252-0.099-0.375-0.384-0.276-0.636
			c0.002-0.005,0.004-0.01,0.006-0.014c2.09-5.08,1-13.63,0.94-13.72c-0.036-0.27,0.151-0.519,0.42-0.56
			c0.275-0.036,0.529,0.155,0.57,0.43c0.05,0.36,1.18,8.91-1,14.23C81.38,356.424,81.196,356.53,81,356.52z"/>
		<path style="fill:#27DEBF;" d="M99.64,405.41c-1.2-3.52-7-10.93-17.36-16.73c-9.06-5.05-23-8.79-21.8-15.44
			c1.2-6.65,14.09-6.8,23-1.45c11.17,6.71,17.44,20.44,18.17,25.85L99.64,405.41z"/>
		<path style="fill:#FFFFFF;" d="M100.72,401.7c-0.242,0.003-0.451-0.171-0.49-0.41c-2.32-12.29-19.74-29-33.64-28.63
			c-0.276,0.011-0.509-0.203-0.52-0.479c0,0,0-0.001,0-0.001c-0.006-0.278,0.212-0.509,0.49-0.52c14.37-0.36,32.27,16.8,34.65,29.44
			c0.054,0.271-0.121,0.534-0.392,0.589c-0.003,0-0.005,0.001-0.008,0.001L100.72,401.7z"/>
		<path style="fill:#27DEBF;" d="M407.92,350.25c2-6.64,8.51-12.73,14.08-16.39c5.57-3.66,9.82-5.46,12.28-7.53
			c3-2.5-0.89-8.43-10.07-4.95c-9.18,3.48-14.76,13.69-18.11,24L407.92,350.25z"/>
		<path style="opacity:0.2;enable-background:new    ;" d="M407.92,350.25c2-6.64,8.51-12.73,14.08-16.39
			c5.57-3.66,9.82-5.46,12.28-7.53c3-2.5-0.89-8.43-10.07-4.95c-9.18,3.48-14.76,13.69-18.11,24L407.92,350.25z"/>
		<path style="fill:#FFFFFF;" d="M407.61,345.92c-0.066,0.01-0.134,0.01-0.2,0c-0.285-0.105-0.431-0.422-0.325-0.707
			c0.002-0.005,0.003-0.009,0.005-0.013c3.47-9.06,12.56-20,22.56-22.33c0.305-0.052,0.594,0.152,0.647,0.457
			c0.048,0.281-0.123,0.554-0.397,0.633c-8.45,2-17.81,11.3-21.77,21.64C408.037,345.802,407.832,345.928,407.61,345.92z"/>
		<path style="fill:#27DEBF;" d="M405.84,376.49c2.44-2.69,7.7-1.67,10.65-5.23c2.33-2.8,0.55-6.91,2.89-9.58
			c0.676-0.688,1.49-1.223,2.39-1.57c1.97-0.712,3.877-1.588,5.7-2.62c1.75-1.17,3.19-3.08,3-5.17c-0.19-2.09-1.73-3.84-1.67-5.9
			c0.167-1.487,0.859-2.866,1.95-3.89c1.091-1.005,2.067-2.129,2.91-3.35c0.453-0.683,0.641-1.508,0.53-2.32
			c-0.324-1.162-1.313-2.017-2.51-2.17c-3.07-0.59-5.74,1.15-8.4,2.41c-2.27,1.08-4.4,0.89-6.89,0.9
			c-0.995-0.051-1.991,0.061-2.95,0.33c-1.94,0.65-3.23,2.49-4.11,4.35c-0.88,1.86-1.49,3.87-2.75,5.49
			c-0.933,0.985-1.808,2.023-2.62,3.11c-0.669,1.377-1.099,2.858-1.27,4.38c-0.793,3.663-1.066,7.42-0.81,11.16
			c0.136,1.818,0.523,3.608,1.15,5.32C403.23,372.53,405.59,376.76,405.84,376.49z"/>
		<path style="fill:#FFFFFF;" d="M425.52,353.78h-0.14c-0.08,0-7.86-1.95-13.47-0.66c-0.3,0.063-0.596-0.123-0.67-0.42
			c-0.069-0.301,0.119-0.601,0.42-0.67c5.86-1.34,13.66,0.59,14,0.67c0.298,0.081,0.474,0.389,0.393,0.688
			c-0.065,0.237-0.277,0.405-0.523,0.412L425.52,353.78z"/>
		<path style="fill:#FFFFFF;" d="M416.29,348.21c-0.29-0.004-0.529-0.23-0.55-0.52c-0.307-2.144-0.902-4.236-1.77-6.22
			c-0.067-0.302,0.124-0.601,0.426-0.668c0.218-0.048,0.443,0.037,0.574,0.218c0.923,2.1,1.549,4.318,1.86,6.59
			c0.017,0.308-0.213,0.573-0.52,0.6H416.29z"/>
		<path style="fill:#FFFFFF;" d="M403.49,373.15h-0.06c-0.302-0.031-0.522-0.301-0.491-0.603c0-0.002,0-0.004,0.001-0.007
			c1.68-14.44,10.39-26,25.89-34.46c0.267-0.145,0.601-0.045,0.746,0.222c0.001,0.003,0.003,0.005,0.004,0.008
			c0.147,0.266,0.051,0.6-0.215,0.747c-0.001,0.001-0.003,0.002-0.005,0.003c-15.16,8.25-23.68,19.55-25.31,33.61
			C404.006,372.945,403.769,373.149,403.49,373.15z"/>
	</g>
</g>
<g id="Clouds">
	<g>
		<path style="fill:#EBEBEB;" d="M174.57,102.48l-6.47,3.73c0.04-0.282,0.06-0.566,0.06-0.85v-1.88c0-3.33-2.34-4.68-5.23-3
			c-1.243,0.761-2.304,1.785-3.11,3c-0.48-4.19-3.76-5.75-7.76-3.44c-4.619,3.006-7.524,8.037-7.82,13.54v2.8
			c-0.029,1.12,0.2,2.232,0.67,3.25l-5.37,3.1c-1.711,1.107-2.789,2.965-2.9,5c0,1.85,1.29,2.6,2.9,1.67l35-20.22
			c1.704-1.114,2.779-2.968,2.9-5C177.47,102.31,176.17,101.56,174.57,102.48z"/>
		<path style="fill:#EBEBEB;" d="M131.83,85.31l-3.56,1.37v-7.86c0-6.22-5-7.72-10.36-4.6l0,0c-5.4,3.11-9.77,10.68-9.77,16.91v1.14
			c-1.537-0.478-3.209-0.219-4.53,0.7l0,0c-4.137,2.711-6.737,7.23-7,12.17v0.52l-5,2.87c-2.728,1.779-4.447,4.749-4.63,8
			c0,3,2.07,4.15,4.63,2.67L131.83,96c2.728-1.779,4.446-4.749,4.63-8C136.46,85,134.39,83.83,131.83,85.31z"/>
	</g>
</g>
<g id="Thumbtacks">
	<g>
		<path style="fill:#E0E0E0;" d="M224.37,405l-0.13,0.13c-0.099,0.101-0.214,0.186-0.34,0.25c-0.25,0.16-0.38,0-0.61-0.15l-1.87-1.1
			c-0.78-0.45-1.68-1-2.64-1.57c-0.96-0.57-2-1.19-3-1.84c-2-1.27-4.05-2.57-5.53-3.59c-1.48-1.02-2.47-1.71-2.47-1.71
			s1.1,0.48,2.71,1.28c1.61,0.8,3.77,1.87,5.88,3c1.07,0.56,2.11,1.14,3.1,1.68s1.9,1.05,2.68,1.5L224,404
			c0.22,0.15,0.45,0.16,0.44,0.46c0.007,0.142-0.01,0.284-0.05,0.42L224.37,405z"/>
		<path style="fill:#263238;" d="M226.3,406.36c-1.45,2.51-3.81,3.87-6.3,2.52l-0.14-0.07h-0.06c-0.745-0.566-1.143-1.479-1.05-2.41
			c0.142-2.659,1.547-5.09,3.78-6.54c0.737-0.52,1.682-0.647,2.53-0.34l0.13,0.08l0.23,0.14
			C227.75,401.2,227.73,403.89,226.3,406.36z"/>
		<path style="fill:#455A64;" d="M224.17,402.35c1.36-0.78,2.46-0.15,2.46,1.42c-0.091,1.732-1.006,3.315-2.46,4.26
			c-1.36,0.78-2.46,0.15-2.46-1.42C221.804,404.879,222.718,403.297,224.17,402.35z"/>
		<path style="fill:#455A64;" d="M232.14,406.55c-2.225-1.132-4.279-2.573-6.1-4.28l-3.61,5.93c2.447,0.691,4.777,1.746,6.91,3.13
			L232.14,406.55z"/>
		<path style="fill:#263238;" d="M234.55,407.46c-0.027-1.637-1.363-2.95-3-2.95c-0.342,0.01-0.68,0.078-1,0.2h-0.06h-0.11
			c-0.162,0.061-0.319,0.135-0.47,0.22c-1.769,1.145-2.884,3.066-3,5.17c-0.001,0.252,0.026,0.504,0.08,0.75
			c0.298,1.602,1.838,2.658,3.44,2.36c1.386-0.258,2.396-1.461,2.41-2.87c0.005-0.093,0.005-0.187,0-0.28
			C233.85,409.58,234.509,408.578,234.55,407.46z"/>
		<path style="fill:#455A64;" d="M231.6,406c1.65-0.95,3-0.18,3,1.73c-0.116,2.104-1.231,4.025-3,5.17c-1.65,1-3,0.18-3-1.72
			C228.718,409.074,229.832,407.15,231.6,406z"/>
		<path style="fill:#E0E0E0;" d="M247.29,398.22l-0.13,0.13c-0.101,0.101-0.216,0.189-0.34,0.26c-0.25,0.16-0.38,0-0.61-0.15
			l-1.87-1.1c-0.78-0.46-1.68-1-2.64-1.57c-0.96-0.57-2-1.2-3-1.84c-2-1.27-4-2.58-5.53-3.6c-1.53-1.02-2.47-1.71-2.47-1.71
			s1.1,0.49,2.71,1.29c1.61,0.8,3.77,1.86,5.88,3c1.07,0.55,2.11,1.14,3.1,1.68c0.99,0.54,1.9,1,2.68,1.49
			c0.78,0.49,1.43,0.82,1.89,1.07c0.21,0.15,0.44,0.16,0.43,0.46c0.024,0.139,0.024,0.281,0,0.42L247.29,398.22z"/>
		<path style="fill:#263238;" d="M249.18,399.58c-1.45,2.51-3.81,3.87-6.3,2.52l-0.14-0.08h-0.06
			c-0.745-0.566-1.143-1.479-1.05-2.41c0.149-2.66,1.552-5.09,3.78-6.55c0.738-0.518,1.684-0.642,2.53-0.33l0.14,0.07
			c0.077,0.044,0.151,0.094,0.22,0.15C250.64,394.42,250.62,397.1,249.18,399.58z"/>
		<path style="fill:#455A64;" d="M247.05,395.57c1.36-0.79,2.46-0.15,2.46,1.42c-0.094,1.728-1.008,3.307-2.46,4.25
			c-1.35,0.79-2.45,0.15-2.45-1.41C244.692,398.101,245.602,396.519,247.05,395.57z"/>
		<path style="fill:#455A64;" d="M255,399.76c-2.225-1.132-4.279-2.573-6.1-4.28l-3.6,5.94c2.446,0.681,4.773,1.733,6.9,3.12
			L255,399.76z"/>
		<path style="fill:#263238;" d="M257.43,400.68c-0.027-1.637-1.362-2.95-3-2.95c-0.343,0.006-0.682,0.073-1,0.2h-0.06l-0.11,0.05
			c-0.161,0.059-0.318,0.129-0.47,0.21c-1.766,1.152-2.879,3.075-3,5.18c-0.003,0.25,0.027,0.498,0.09,0.74
			c0.266,1.602,1.781,2.684,3.383,2.418c1.428-0.238,2.471-1.48,2.457-2.928c0-0.09,0-0.18,0-0.27
			C256.746,402.842,257.408,401.816,257.43,400.68z"/>
		<path style="fill:#455A64;" d="M254.48,399.18c1.65-0.95,3-0.18,3,1.72c-0.115,2.107-1.23,4.032-3,5.18c-1.65,0.95-3,0.18-3-1.73
			C251.598,402.247,252.712,400.326,254.48,399.18z"/>
		<path style="fill:#E0E0E0;" d="M183.37,398.84v-0.18c-0.038-0.137-0.058-0.278-0.06-0.42c0-0.3,0.22-0.31,0.44-0.46l1.89-1.07
			c0.78-0.45,1.69-1,2.68-1.5c0.99-0.5,2-1.12,3.09-1.68c2.12-1.12,4.25-2.21,5.88-3c1.63-0.79,2.72-1.28,2.72-1.28
			s-1,0.71-2.47,1.71c-1.47,1-3.5,2.32-5.53,3.59c-1,0.65-2.05,1.26-3,1.84c-0.95,0.58-1.87,1.12-2.64,1.57l-1.87,1.1
			c-0.24,0.12-0.36,0.31-0.62,0.15c-0.125-0.062-0.237-0.147-0.33-0.25L183.37,398.84z"/>
		<path style="fill:#263238;" d="M181.44,400.19c1.46,2.51,3.82,3.87,6.31,2.52l0.14-0.07c0.016,0.004,0.034,0.004,0.05,0
			c0.751-0.563,1.153-1.477,1.06-2.41c-0.147-2.657-1.551-5.086-3.78-6.54c-0.737-0.52-1.682-0.647-2.53-0.34l-0.14,0.08
			c-0.077,0.041-0.151,0.088-0.22,0.14C180,395,180,397.72,181.44,400.19z"/>
		<path style="fill:#455A64;" d="M183.57,396.18c-1.35-0.78-2.45-0.15-2.45,1.42c0.092,1.729,1.002,3.311,2.45,4.26
			c1.36,0.78,2.46,0.15,2.46-1.42C185.936,398.709,185.022,397.127,183.57,396.18z"/>
		<path style="fill:#455A64;" d="M175.61,400.38c2.225-1.132,4.278-2.573,6.1-4.28l3.6,5.93c-2.447,0.691-4.777,1.746-6.91,3.13
			L175.61,400.38z"/>
		<path style="fill:#263238;" d="M173.2,401.29c-0.012-1.618,1.289-2.94,2.908-2.952c0.374-0.003,0.745,0.066,1.092,0.202h0.07
			l0.11,0.05c0.158,0.063,0.312,0.137,0.46,0.22c1.768,1.146,2.882,3.067,3,5.17c0.003,0.253-0.027,0.505-0.09,0.75
			c-0.267,1.602-1.781,2.684-3.383,2.418c-1.428-0.238-2.471-1.48-2.457-2.928c-0.005-0.093-0.005-0.187,0-0.28
			C173.874,403.463,173.208,402.43,173.2,401.29z"/>
		<path style="fill:#455A64;" d="M176.15,399.8c-1.65-1-3-0.19-3,1.72c0.118,2.103,1.232,4.024,3,5.17c1.65,1,3,0.18,3-1.72
			C179.036,402.866,177.92,400.944,176.15,399.8z"/>
	</g>
</g>
<g id="Cork_Board">
	<g>
		<polygon style="fill:#27DEBF;" points="117.11,391.06 362.67,249.29 362.67,57.36 117.11,199.13 		"/>
		<polygon style="opacity:0.6;fill:#FFFFFF;enable-background:new    ;" points="117.11,391.06 362.67,249.29 362.67,57.36 
			117.11,199.13 		"/>
		<polygon style="fill:#37474F;" points="105.78,192.59 117.11,199.13 362.67,57.36 374,37.73 		"/>
		<polygon style="fill:#455A64;" points="374,255.84 374,37.73 362.67,57.36 362.67,249.29 		"/>
		<polygon style="fill:#455A64;" points="105.78,192.59 117.11,199.13 117.11,391.06 105.78,410.69 		"/>
		<polygon style="fill:#37474F;" points="117.11,391.06 362.67,249.29 374,255.84 105.78,410.69 		"/>
		<polygon style="fill:#455A64;" points="374,37.73 366.44,33.37 98.22,188.23 105.78,192.59 		"/>
		<polygon style="fill:#263238;" points="98.22,188.23 105.78,192.59 105.78,410.69 98.22,406.33 		"/>
		<polygon style="fill:#263238;" points="362.67,57.36 358.89,59.54 358.88,247.12 117.11,386.7 117.11,391.06 362.67,249.29 		"/>
	</g>
</g>
<g id="Photos">
	<g>
		<g>
			<path style="fill:#455A64;" d="M191.54,230.29l-50.88,29.37c-0.59,0.389-0.961,1.034-1,1.74v82.71c0,0.65,0.45,0.91,1,0.58
				l50.88-29.37c0.589-0.39,0.96-1.035,1-1.74v-82.71C192.54,230.23,192.09,230,191.54,230.29z"/>
			<path style="fill:#FAFAFA;" d="M196.87,228.67l-1.76-1c-0.63-0.313-1.37-0.313-2,0L142.22,257c-0.594,0.39-0.966,1.04-1,1.75
				v82.7c0.034,0.71,0.406,1.36,1,1.75l1.76,1c0.63,0.313,1.37,0.313,2,0l50.87-29.38c0.593-0.387,0.964-1.033,1-1.74v-82.67
				C197.819,229.707,197.455,229.061,196.87,228.67z"/>
			<path style="fill:#E0E0E0;" d="M168.28,273.23l-26.77-15.46c-0.187,0.301-0.29,0.646-0.3,1v82.7c0.034,0.71,0.406,1.36,1,1.75
				l1.76,1c0.63,0.313,1.37,0.313,2,0l22.36-19.43C168.47,305.38,168.6,273.41,168.28,273.23z"/>
			<path style="fill:#F0F0F0;" d="M196.87,229.83L146,259.2c-0.594,0.39-0.966,1.04-1,1.75v82.71c0,0.64,0.45,0.9,1,0.58
				l50.87-29.38c0.593-0.386,0.964-1.033,1-1.74v-82.71C197.88,229.77,197.43,229.51,196.87,229.83z"/>
			<path style="fill:#FAFAFA;" d="M147.89,260.29L195,233.1c0.56-0.32,1-0.06,1,0.58V311c-0.039,0.708-0.409,1.357-1,1.75
				l-47.1,27.19c-0.55,0.32-1,0.06-1-0.59V262C146.946,261.307,147.312,260.675,147.89,260.29z"/>
			<path style="fill:#27DEBF;" d="M146.88,262v13.75c1.54,0.56,3.52,0.3,5.66-0.94c5-2.86,9-9.82,9-15.54
				c0-2.65-0.86-4.56-2.27-5.58l-11.36,6.56C147.306,260.634,146.922,261.285,146.88,262z"/>
			<path style="fill:#27DEBF;" d="M187.45,258.86l-12.24,29.28l-8-6.5c-0.593-0.488-1.469-0.403-1.957,0.189
				c-0.078,0.095-0.143,0.199-0.193,0.311l-18.14,39.8v17.38c0,0.65,0.45,0.91,1,0.59l7.08-4.11l40-23.08
				c0.591-0.393,0.961-1.042,1-1.75v-43.55l-6.11-8.81c-0.428-0.637-1.292-0.806-1.929-0.377
				C187.732,258.386,187.554,258.605,187.45,258.86z"/>
			<path style="fill:#263238;" d="M174.4,254.38c-1.45,2.51-3.82,3.87-6.31,2.52l-0.14-0.07l0,0c-0.745-0.566-1.143-1.479-1.05-2.41
				c0.142-2.656,1.542-5.086,3.77-6.54c0.737-0.52,1.682-0.647,2.53-0.34l0.14,0.08c0.078,0.038,0.152,0.085,0.22,0.14
				C175.85,249.22,175.83,251.91,174.4,254.38z"/>
			<path style="fill:#455A64;" d="M172.27,250.37c1.36-0.78,2.46-0.15,2.46,1.42c-0.091,1.732-1.006,3.315-2.46,4.26
				c-1.36,0.78-2.46,0.15-2.46-1.42C169.904,252.899,170.818,251.317,172.27,250.37z"/>
			<path style="fill:#455A64;" d="M180.23,254.57c-2.223-1.131-4.273-2.572-6.09-4.28l-3.61,5.93c2.447,0.691,4.777,1.746,6.91,3.13
				L180.23,254.57z"/>
			<path style="fill:#263238;" d="M182.64,255.48c0.012-1.618-1.289-2.94-2.908-2.952c-0.374-0.003-0.745,0.066-1.092,0.202h-0.06
				l-0.12,0.05c-0.158,0.063-0.312,0.137-0.46,0.22c-1.768,1.146-2.882,3.067-3,5.17c0.002,0.253,0.032,0.504,0.09,0.75
				c0.298,1.602,1.838,2.658,3.44,2.36c1.386-0.258,2.396-1.461,2.41-2.87c0.005-0.093,0.005-0.187,0-0.28
				C181.972,257.65,182.634,256.618,182.64,255.48z"/>
			<path style="fill:#455A64;" d="M177.578,256.205c1.165-2.019,3.055-3.109,4.223-2.435c1.167,0.674,1.169,2.856,0.004,4.875
				c-1.165,2.019-3.055,3.109-4.223,2.435C176.415,260.406,176.413,258.223,177.578,256.205z"/>
		</g>
		<g>
			<path style="fill:#455A64;" d="M261.545,143.286l-50.88,29.37c-0.59,0.389-0.961,1.034-1,1.74v82.71c0,0.65,0.45,0.91,1,0.58
				l50.88-29.37c0.589-0.39,0.96-1.035,1-1.74v-82.71C262.545,143.226,262.095,142.996,261.545,143.286z"/>
			<path style="fill:#FAFAFA;" d="M266.875,141.666l-1.76-1c-0.63-0.313-1.37-0.313-2,0l-50.89,29.33c-0.594,0.39-0.966,1.04-1,1.75
				v82.7c0.034,0.71,0.406,1.36,1,1.75l1.76,1c0.63,0.313,1.37,0.313,2,0l50.87-29.38c0.593-0.386,0.964-1.033,1-1.74v-82.67
				C267.824,142.703,267.46,142.057,266.875,141.666z"/>
			<path style="fill:#E0E0E0;" d="M238.285,186.226l-26.77-15.46c-0.187,0.301-0.29,0.646-0.3,1v82.7c0.034,0.71,0.406,1.36,1,1.75
				l1.76,1c0.63,0.313,1.37,0.313,2,0l22.36-19.43C238.475,218.376,238.605,186.406,238.285,186.226z"/>
			<path style="fill:#F0F0F0;" d="M266.875,142.826l-50.87,29.37c-0.594,0.39-0.966,1.04-1,1.75v82.71c0,0.64,0.45,0.9,1,0.58
				l50.87-29.38c0.593-0.386,0.964-1.033,1-1.74v-82.71C267.885,142.766,267.435,142.506,266.875,142.826z"/>
			<path style="fill:#FAFAFA;" d="M217.895,173.286l47.11-27.19c0.56-0.32,1-0.06,1,0.58v77.32c-0.039,0.708-0.409,1.357-1,1.75
				l-47.1,27.19c-0.55,0.32-1,0.06-1-0.59v-77.35C216.951,174.303,217.317,173.67,217.895,173.286z"/>
			<path style="fill:#27DEBF;" d="M216.885,174.996v13.75c1.54,0.56,3.52,0.3,5.66-0.94c5-2.86,9-9.82,9-15.54
				c0-2.65-0.86-4.56-2.27-5.58l-11.36,6.56C217.311,173.63,216.927,174.281,216.885,174.996z"/>
			<path style="fill:#27DEBF;" d="M257.455,171.856l-12.24,29.28l-8-6.5c-0.593-0.488-1.469-0.403-1.957,0.189
				c-0.078,0.094-0.143,0.199-0.193,0.311l-18.14,39.8v17.38c0,0.65,0.45,0.91,1,0.59l7.08-4.11l40-23.08
				c0.591-0.393,0.961-1.042,1-1.75v-43.55l-6.11-8.81c-0.428-0.637-1.292-0.806-1.929-0.378
				C257.737,171.382,257.559,171.601,257.455,171.856z"/>
			<path style="fill:#263238;" d="M244.405,167.376c-1.45,2.51-3.82,3.87-6.31,2.52l-0.14-0.07l0,0
				c-0.745-0.566-1.143-1.479-1.05-2.41c0.142-2.656,1.542-5.086,3.77-6.54c0.737-0.52,1.682-0.647,2.53-0.34l0.14,0.08
				c0.078,0.038,0.152,0.085,0.22,0.14C245.855,162.216,245.835,164.906,244.405,167.376z"/>
			<path style="fill:#455A64;" d="M242.275,163.366c1.36-0.78,2.46-0.15,2.46,1.42c-0.091,1.732-1.006,3.315-2.46,4.26
				c-1.36,0.78-2.46,0.15-2.46-1.42C239.909,165.895,240.823,164.313,242.275,163.366z"/>
			<path style="fill:#455A64;" d="M250.235,167.566c-2.223-1.13-4.273-2.572-6.09-4.28l-3.61,5.93
				c2.447,0.691,4.777,1.746,6.91,3.13L250.235,167.566z"/>
			<path style="fill:#263238;" d="M252.645,168.476c0.012-1.618-1.289-2.94-2.908-2.952c-0.374-0.003-0.745,0.066-1.092,0.202h-0.06
				l-0.12,0.05c-0.158,0.063-0.312,0.136-0.46,0.22c-1.768,1.146-2.882,3.067-3,5.17c0.002,0.253,0.032,0.504,0.09,0.75
				c0.298,1.602,1.838,2.658,3.44,2.36c1.386-0.258,2.395-1.46,2.41-2.87c0.005-0.093,0.005-0.187,0-0.28
				C251.977,170.646,252.639,169.614,252.645,168.476z"/>
			<path style="fill:#455A64;" d="M247.583,169.2c1.165-2.019,3.056-3.109,4.223-2.435c1.167,0.674,1.169,2.856,0.004,4.875
				c-1.165,2.019-3.056,3.109-4.223,2.435C246.42,173.401,246.418,171.219,247.583,169.2z"/>
		</g>
		<g>
			<path style="fill:#455A64;" d="M336.04,152.524l-50.88,29.37c-0.59,0.389-0.961,1.034-1,1.74v82.71c0,0.65,0.45,0.91,1,0.58
				l50.88-29.37c0.589-0.39,0.96-1.035,1-1.74v-82.71C337.04,152.464,336.59,152.234,336.04,152.524z"/>
			<path style="fill:#FAFAFA;" d="M341.37,150.904l-1.76-1c-0.63-0.313-1.37-0.313-2,0l-50.89,29.33c-0.594,0.39-0.966,1.04-1,1.75
				v82.7c0.034,0.71,0.406,1.36,1,1.75l1.76,1c0.63,0.313,1.37,0.313,2,0l50.87-29.38c0.593-0.387,0.964-1.033,1-1.74v-82.67
				C342.319,151.941,341.955,151.295,341.37,150.904z"/>
			<path style="fill:#E0E0E0;" d="M312.78,195.464l-26.77-15.46c-0.187,0.301-0.29,0.646-0.3,1v82.7c0.034,0.71,0.406,1.36,1,1.75
				l1.76,1c0.63,0.313,1.37,0.313,2,0l22.36-19.43C312.97,227.614,313.1,195.644,312.78,195.464z"/>
			<path style="fill:#F0F0F0;" d="M341.37,152.064l-50.87,29.37c-0.594,0.39-0.966,1.04-1,1.75v82.71c0,0.64,0.45,0.9,1,0.58
				l50.87-29.38c0.593-0.387,0.964-1.033,1-1.74v-82.71C342.38,152.004,341.93,151.744,341.37,152.064z"/>
			<path style="fill:#FAFAFA;" d="M292.39,182.524l47.11-27.19c0.56-0.32,1-0.06,1,0.58v77.32c-0.039,0.708-0.41,1.357-1,1.75
				l-47.1,27.19c-0.55,0.32-1,0.06-1-0.59v-77.35C291.446,183.541,291.812,182.909,292.39,182.524z"/>
			<path style="fill:#27DEBF;" d="M291.38,184.234v13.75c1.54,0.56,3.52,0.3,5.66-0.94c5-2.86,9-9.82,9-15.54
				c0-2.65-0.86-4.56-2.27-5.58l-11.36,6.56C291.806,182.869,291.423,183.52,291.38,184.234z"/>
			<path style="fill:#27DEBF;" d="M331.95,181.094l-12.24,29.28l-8-6.5c-0.593-0.488-1.469-0.403-1.957,0.189
				c-0.078,0.094-0.143,0.199-0.193,0.311l-18.14,39.8v17.38c0,0.65,0.45,0.91,1,0.59l7.08-4.11l40-23.08
				c0.59-0.393,0.961-1.042,1-1.75v-43.55l-6.11-8.81c-0.428-0.637-1.292-0.806-1.929-0.378
				C332.232,180.621,332.055,180.839,331.95,181.094z"/>
		</g>
	</g>
</g>
<g id="Character">
	<g>
		<path style="fill:#FFA8A7;" d="M420.39,229.39c-1.2-5.18-3.61-15.64-6.15-27c-1.29-5.79-2.76-11.54-7.08-12.44
			c0,0-11.38,4.5-11.38,12.89s9.33,11.55,9.33,11.55s6,16.67,5.87,19"/>
		<path style="fill:#263238;" d="M319.18,176.8c-1.45,2.51-3.81,3.87-6.3,2.52l-0.14-0.07h-0.06c-0.745-0.566-1.143-1.479-1.05-2.41
			c0.144-2.661,1.548-5.094,3.78-6.55c0.74-0.513,1.683-0.636,2.53-0.33l0.14,0.07l0.22,0.15
			C320.63,171.64,320.61,174.33,319.18,176.8z"/>
		<path style="fill:#455A64;" d="M317.05,172.79c1.36-0.78,2.46-0.15,2.46,1.42c-0.095,1.731-1.008,3.313-2.46,4.26
			c-1.35,0.78-2.45,0.15-2.45-1.42C314.695,175.322,315.604,173.741,317.05,172.79z"/>
		<path style="fill:#455A64;" d="M325,177c-2.225-1.132-4.279-2.573-6.1-4.28l-3.61,5.93c2.449,0.686,4.779,1.741,6.91,3.13L325,177
			z"/>
		<path style="fill:#FFA8A7;" d="M382,187.63c-3.92,0-7.84-0.31-10.79,1.79c-7.64,5.43-17.31,12.6-22,16.55
			c0,0-13.84-27.85-18.91-31.41c-3.27-2.3-5.86-3.27-8.13-3.4c-2.134-0.215-4.237,0.629-5.63,2.26c-2.14,2.5-1.35,6,3.66,5.16
			c1.34-0.23,2.33-3,2.33-3c1.24,0.12,0.4,4.33,1.62,4.62c2.12,2.87,4.54,1.67,5.74,4.77c1.65,4.28,11.77,31.71,13.38,33.8
			c1.77,2.3,4.12,3.12,8,1.12c3.88-2,23.73-14.48,23.73-14.48L382,187.63z"/>
		<path style="fill:#263238;" d="M327.43,177.9c0-1.637-1.313-2.973-2.95-3c-0.359,0.005-0.715,0.072-1.05,0.2h-0.06l-0.11,0.05
			c-0.164,0.057-0.322,0.13-0.47,0.22c-1.769,1.145-2.884,3.066-3,5.17c-0.003,0.253,0.027,0.505,0.09,0.75
			c0.266,1.602,1.781,2.684,3.383,2.418c1.428-0.238,2.471-1.48,2.457-2.928c0.005-0.093,0.005-0.187,0-0.28
			C326.73,180.02,327.389,179.018,327.43,177.9z"/>
		<path style="fill:#455A64;" d="M324.48,176.4c1.65-1,3-0.18,3,1.73c-0.118,2.103-1.232,4.024-3,5.17c-1.65,0.95-3,0.18-3-1.72
			C321.598,179.474,322.712,177.55,324.48,176.4z"/>
		<rect x="396.13" y="364.26" style="fill:#FFA8A7;" width="8.12" height="11.82"/>
		<path style="fill:#263238;" d="M382.46,372.59c-0.49,1.45-2.93,2.6-4.69,3.91c-1.377,0.966-1.848,2.789-1.11,4.3
			c0.66,1.14,3.77,1.73,7.08,1.2c3.74-0.61,7-2.18,7.66-5.5c0.424-2.781,1.162-5.505,2.2-8.12c0.65-1.71,1.79-3.32,1.52-5
			c-0.352-1.658-1.363-3.102-2.8-4c0,0-6.14,13.92-7.87,14.25C382.72,373.96,382.46,372.59,382.46,372.59z"/>
		<path style="fill:#FFA8A7;" d="M382.18,354c0,0,1.3,4.61,1.73,6.12s-0.17,9.2-1,11.32c-0.32,1.232-1.041,2.323-2.05,3.1
			c0,0-2.49,2.16,0.39,2.59c2.423,0.577,4.964-0.281,6.54-2.21c1.91-2.18,2.15-8.43,3.43-11c0.82-1.65,1.42-2.66,1.64-3.2
			c0.22-0.54-0.57-0.83-1.37-3.16c-0.635-2.297-1.106-4.636-1.41-7L382.18,354z"/>
		<path style="fill:#455A64;" d="M409.91,243.8c4.24,11.79,0.54,32.35-0.56,44c-1.07,11.29-2.4,24.49-2.4,24.49
			s3.46,11.94,3.29,21.14c-0.17,9.77-5.89,33.3-5.89,33.3c-2.538,1.629-5.792,1.629-8.33,0c0,0-1.46-19.75-2.78-31
			c-1.39-11.71-1.86-20.25-3.06-27.1c-1.51-8.53-2.86-42.15-2.86-42.15L381,301.9c1.989,4.213,3.592,8.598,4.79,13.1
			c1.78,6.93,5.26,39.42,5.26,39.42s-2.53,3.68-8.17,3.07c0,0-16.36-47-18-51.44c-2.24-6.14,1.54-46.47,2.78-60L409.91,243.8z"/>
		<path style="fill:#27DEBF;" d="M395.49,188.06c0,0,10.3,1.29,11.67,1.91c-10.78,7.58-2.05,24.44-2.05,24.44l-5.22,14.35
			c4.46,5,7.15,7.76,10,15c-3,3.48-21.68,15.5-42.22,2.29c0.42-6.97,1.228-13.91,2.42-20.79c-3-14.17-3.27-18.64-2.42-21.95
			C370.1,194,375.62,188,382,187.67L395.49,188.06z"/>
		<path style="opacity:0.2;enable-background:new    ;" d="M395.49,188.06c0,0,10.3,1.29,11.67,1.91
			c-10.78,7.58-2.05,24.44-2.05,24.44l-5.22,14.35c4.46,5,7.15,7.76,10,15c-3,3.48-21.68,15.5-42.22,2.29
			c0.42-6.97,1.228-13.91,2.42-20.79c-3-14.17-3.27-18.64-2.42-21.95C370.1,194,375.62,188,382,187.67L395.49,188.06z"/>
		<path style="fill:#263238;" d="M396.13,372.07v-1.16c-1,3.843-3.002,7.352-5.8,10.17c-2.56,2.33-6.06,5-6.95,7.63
			c-0.89,2.63,4.13,3.79,7.44,3.45c3.218-0.39,6.183-1.94,8.34-4.36c2.1-2.41,2.07-4.06,3-5.39c0.93-1.33,3.25-2.82,3.78-4.35
			c0.29-0.85-0.06-2.7-0.47-4.27c-0.41-1.57-0.78-3-1.27-2.88v0.89c-1.157,0.907-2.59,1.39-4.06,1.37
			C399,373.22,396.12,373,396.13,372.07z"/>
		<path style="fill:#FFA8A7;" d="M404.25,371.8c-0.25-0.8-2.41,1.13-4.25,1.2c-1.19,0.05-3-0.09-3-1l-0.87-1.09
			c-1,3.843-3.002,7.352-5.8,10.17l-1.95,1.73c-1.37,1.52-1,2.84,2.22,3.12s6-1.66,8.45-4.64
			C401.5,378.31,404.25,371.8,404.25,371.8z"/>
		<path style="fill:#263238;" d="M388.47,181.15h-1.92c-10.212,0-18.49-8.278-18.49-18.49v-1.88c0-8.682,7.038-15.72,15.72-15.72
			l0,0h7.57c8.682,0,15.72,7.038,15.72,15.72l0,0v1.77C407.07,172.823,398.742,181.15,388.47,181.15L388.47,181.15z"/>
		<path style="fill:#FFA8A7;" d="M374.47,152.92c-2.06,1.22-4.61,6.4-4.36,17.26c0.22,9.2,3.2,11.48,4.7,12.13
			c1.5,0.65,4.39,0.26,7.19-0.21v5.53c0,0-3.88,4.51-3.63,7c0.25,2.49,5.6,3.13,9.24,0.66c3.64-2.47,6.69-7.3,6.69-7.3l-0.06-12.7
			c0,0,1.65,1.6,4.45-0.85c2.32-2,3.1-5.43,1.29-7.26c-1.601-1.522-4.133-1.459-5.655,0.142c-0.314,0.33-0.569,0.712-0.755,1.128
			c0,0-4.48,0.17-10.45-3.11C378.425,162.812,375.213,158.2,374.47,152.92z"/>
		<path style="fill:#263238;" d="M380.39,167.87c-0.005,0.641,0.511,1.164,1.151,1.168c0.641,0.005,1.164-0.511,1.168-1.152
			c0.004-0.621-0.48-1.135-1.1-1.167c-0.651-0.022-1.197,0.488-1.22,1.139C380.39,167.863,380.39,167.866,380.39,167.87z"/>
		<path style="fill:#F28F8F;" d="M380.08,175.67l-2.69,0.86c0.183,0.746,0.936,1.202,1.681,1.019
			c0.023-0.006,0.046-0.012,0.069-0.019C379.911,177.273,380.33,176.443,380.08,175.67z"/>
		<path style="fill:#263238;" d="M370.9,164.31l2.34-1.62c-0.394-0.64-1.231-0.839-1.871-0.445c-0.023,0.014-0.046,0.03-0.069,0.045
			C370.648,162.748,370.472,163.638,370.9,164.31z"/>
		<path style="fill:#263238;" d="M371.44,167c-0.005,0.641,0.511,1.164,1.151,1.168c0.641,0.005,1.164-0.511,1.168-1.152
			c0.005-0.621-0.48-1.135-1.1-1.167C372.007,165.833,371.462,166.347,371.44,167z"/>
		<polygon style="fill:#F28F8F;" points="376.9,166.37 376.72,173.34 373.05,172.2 		"/>
		<path style="fill:#F28F8F;" d="M382,182.1c3-0.39,9.06-2.13,10-4.54c-0.377,1.218-1.121,2.291-2.13,3.07
			C388.05,182.19,382,184,382,184V182.1z"/>
		<polygon style="fill:#27DEBF;" points="402.97,220.29 394.87,231.27 399.89,228.76 		"/>
		<polygon style="opacity:0.4;enable-background:new    ;" points="402.97,220.29 394.87,231.27 399.89,228.76 		"/>
		<path style="fill:#FFA8A7;" d="M329,183.47c-1.45-0.724-2.959-1.322-4.51-1.79c-0.937-0.398-1.917-0.687-2.92-0.86
			c-0.75-0.13-0.76-2.4,1.92-2.15c2.68,0.25,3.72,0.4,4-0.54L329,183.47z"/>
		<path style="fill:#FFA8A7;" d="M411,233.4c-0.09,1.55-1.69,18-3.68,23.76c-0.279,0.777-0.876,1.398-1.64,1.71
			c-3.45,1.48-4.51,3.11-6.72,5.12c-1.49,1.36-2.7,1.64-2.55,2.12c0.485,1.095,1.729,1.634,2.86,1.24
			c1.216-0.389,2.381-0.923,3.47-1.59c-0.966,2.076-2.259,3.984-3.83,5.65c-3.58,3.83-3.9,6.3,2.77,6.82c4.17,0.33,7.69-2,11.46-11
			c1.174-3.3,2.143-6.67,2.9-10.09c1.43-5.6,3.44-15.59,4.48-20.86c0.449-2.272,0.411-4.613-0.11-6.87"/>
		<path style="fill:#263238;" d="M404.77,152.57L404.77,152.57c6.788,0,12.29,5.502,12.29,12.29l0,0V188l0,0l0,0
			c-6.788,0-12.29-5.502-12.29-12.29l0,0v-23.1V152.57z"/>
		<path style="fill:#263238;" d="M387.32,266.48c0,0-4.57-3.21-8.95-6.93c0,0,4.42,5.85,7,8l-2.81,25.61L387.32,266.48z"/>
	</g>
</g>
</svg>
