<?xml version="1.0" encoding="utf-8"?>
<!-- Generator: Adobe Illustrator 27.3.1, SVG Export Plug-In . SVG Version: 6.00 Build 0)  -->
<svg version="1.1" id="Calque_1" xmlns="http://www.w3.org/2000/svg" xmlns:xlink="http://www.w3.org/1999/xlink" x="0px" y="0px"
	 viewBox="0 0 500 500" style="enable-background:new 0 0 500 500;" xml:space="preserve">
<g>
	<path d="M4.8,409c3.9-13.1,8.4-27.5,13.4-43.1c5-15.6,10.8-34,17.3-55.1c6.6-21.1,14.2-46.2,22.8-75.4
		C67,206.3,77,171.9,88.2,132.3c0.3-0.8,0.8-2.8,1.6-5.9c0.8-3.1,1.2-6.3,1.2-9.4c0-2.1-0.3-3.5-1-4.3c-0.7-0.8-2-1.2-4.1-1.2
		c-5.5,0-10.8,2.2-15.9,6.7c-5.1,4.5-9.7,10-13.8,16.7c-4.1,6.7-7.2,13.6-9.4,20.9c-2.2,7.2-3.3,13.7-3.3,19.5
		c0,6.3,1.3,12.5,3.9,18.5c-11.5,0-19.7-2.4-24.4-7.3c-4.7-4.9-7.1-11-7.1-18.3c0-8.9,2.8-17.9,8.3-27s12.5-17.3,21.1-24.8
		c8.5-7.5,17.4-13.5,26.8-18.1c9.3-4.6,17.8-6.9,25.4-6.9c9.2,0,16.7,3.3,22.6,10c5.9,6.7,10.8,15.8,14.6,27.4
		c3.8,11.5,7,24.7,9.6,39.4c2.6,14.7,5.1,30.2,7.5,46.4c3.1,21,5.6,37.7,7.5,50.2c1.8,12.5,3.3,22.4,4.5,29.7
		c1.2,7.3,2.2,13.5,3.1,18.5c0.9,5,1.9,10.6,3,16.9c3.1-12.6,6.4-25.9,9.6-39.9c3.3-14,6.6-28.3,10-42.7c3.4-14.4,6.8-28.5,10-42.3
		c3.3-13.8,6.6-26.7,10-38.8c3.4-12.1,6.8-22.8,10-32.1c3.3-9.3,6.5-16.7,9.6-22.2c2.4-4.2,6.1-8.7,11.2-13.6
		c5.1-4.9,12-7.3,20.7-7.3c-4.5,11.8-9.5,26.4-15.2,43.9c-5.6,17.5-11.4,36.3-17.1,56.7c-5.8,20.3-11.4,41.1-16.7,62.2
		c-5.4,21.1-10.2,41.6-14.4,61.4c-4.2,19.8-7.5,37.8-10,54.1c-2.5,16.3-3.7,29.5-3.7,39.8c-9.7,0-17.6-2.3-23.8-6.9
		c-6.2-4.6-10.8-13.6-14-27c-1.1-4.5-2.6-11.9-4.7-22.4c-2.1-10.5-4.5-22.9-7.1-37.2c-2.6-14.3-5.4-29.3-8.3-45.1
		c-2.9-15.7-5.6-31.2-8.3-46.2c-2.6-15.1-5-28.6-7.1-40.5c-2.1-11.9-3.8-21.1-5.1-27.4c-11.8,43-21.9,79.4-30.3,109.2
		c-8.4,29.8-15.7,54.1-22,72.8c-6.3,18.8-11.9,33.3-16.9,43.5c-5,10.2-10,17.3-15,21.3C16.4,407,10.8,409,4.8,409z"/>
	<path d="M294.1,409c-7.9,0-15.3-2.1-22.2-6.3c-7-4.2-10.4-9.6-10.4-16.1c0-3.4,0.6-7.1,1.8-11c1.2-3.9,2.3-7.6,3.3-11
		c8.1-24.9,15.7-48.2,22.8-69.9c7.1-21.6,14.2-42.5,21.4-62.6c7.2-20.1,14.8-40.2,22.8-60.4c8-20.2,17-41.3,27-63.4
		c-10,2.1-18.5,4.8-25.6,8.1c-7.1,3.3-12.9,6.2-17.3,8.7c-4.5,2.5-7.7,3.7-9.8,3.7c-1.3,0-3.2-0.9-5.7-2.8c-2.5-1.8-4.7-3.9-6.5-6.3
		c-1.8-2.4-2.8-4.5-2.8-6.3c7.3-3.1,15.9-6.4,25.8-9.8c9.8-3.4,20.5-6.3,32.1-8.7c11.5-2.4,23.1-3.5,34.6-3.5
		c12.3,0,24.9,1.6,37.8,4.9c12.9,3.3,24.7,8.1,35.6,14.6c10.9,6.4,19.7,14.4,26.4,24c6.7,9.6,10,20.8,10,33.6
		c0,13.9-3.1,25.8-9.4,35.8c-6.3,10-14.6,18.4-25,25.2c-10.4,6.8-21.6,12.3-33.7,16.5c-12.1,4.2-24.1,7.3-36,9.4
		c-11.9,2.1-22.6,3.5-32.1,4.3c-9.4,0.8-16.5,1.2-21.3,1.2h-2.4c-7.3,26-14.6,51.9-21.6,77.7C306.7,364.6,300.1,388,294.1,409z
		 M338.9,248.8c14.7-1,29.4-3.5,44.1-7.5c14.7-3.9,28-9.4,39.9-16.3c11.9-6.9,21.5-15.7,28.7-26.2c7.2-10.5,10.8-22.7,10.8-36.6
		c0-13.1-3.5-23.7-10.4-31.9c-7-8.1-15.9-14.3-26.8-18.5c-10.9-4.2-22.4-6.4-34.4-6.7c-9.4,18.4-18.5,40.1-27.2,65.1
		C355.1,195.4,346.8,221.5,338.9,248.8z"/>
</g>
</svg>
